<svg xmlns="http://www.w3.org/2000/svg" viewBox="0 0 52.8 39.67"><defs><style>.cls-2{clip-path:url(#clip-path)}.cls-3{fill:#d9172d}.cls-4{fill:#62666d}</style><clipPath id="clip-path" transform="translate(-6.75 -5.67)"><path fill="none" d="M0 0h66v50.41H0z"/></clipPath></defs><g id="Calque_2" data-name="Calque 2"><g class="cls-2" id="Top_Navigation" data-name="Top Navigation"><path class="cls-3" d="M41.92 35.7v2.39H7.85V35.7H6.26v3.97h37.25V35.7h-1.59zM7.85 3.97V1.58h34.07v2.39h1.59V0H6.26v3.97h1.59z"/><g class="cls-2"><path class="cls-4" d="M16.34 31.45a1.89 1.89 0 0 1-2.13 2H13v-4h1.2a1.88 1.88 0 0 1 2.13 2M13.56 30v2.94h.63a1.47 1.47 0 1 0 0-2.94z" transform="translate(-6.75 -5.67)"/><path class="cls-4" d="M16.41 24.31h-1.9v1.21h1.67v.49h-1.67v1.25h1.94v.51h-2.49v-3.96h2.45v.5z"/><path class="cls-4" d="M30.55 29.83l-.27.47a1.69 1.69 0 0 0-1.05-.39c-.44 0-.76.19-.76.62s.2.5.87.64c1 .21 1.32.52 1.32 1.13s-.54 1.21-1.41 1.21A2.12 2.12 0 0 1 27.8 33l.31-.46a1.69 1.69 0 0 0 1.15.47c.5 0 .85-.23.85-.66s-.26-.53-.93-.67c-1-.21-1.26-.53-1.26-1.12a1.17 1.17 0 0 1 1.31-1.15 2.19 2.19 0 0 1 1.32.42" transform="translate(-6.75 -5.67)"/><path class="cls-4" d="M28.32 23.81h.55v3.96h-.55z"/><path class="cls-4" d="M43 30l-.35.4a1.43 1.43 0 0 0-2.49 1.08A1.45 1.45 0 0 0 41.6 33a1.53 1.53 0 0 0 .9-.28v-.89h-1v-.48h1.56V33a2.08 2.08 0 0 1-1.45.52 2 2 0 0 1-2.05-2 2 2 0 0 1 2-2.05A1.88 1.88 0 0 1 43 30" transform="translate(-6.75 -5.67)"/><path class="cls-4" d="M42.96 26.46v-2.65h.55v4.03h-.02l-2.48-2.73v2.66h-.55v-4.03h.02l2.48 2.72z"/><path class="cls-3" d="M24.48 21.54a4 4 0 1 1-7.91 0 4 4 0 1 1 7.91 0m-7.09 0a3.14 3.14 0 1 0 6.26 0 3.14 3.14 0 1 0-6.26 0m19.81 4h-.81v-7.97h.81zm-4.81 0h1l-2.09-3.31A2.22 2.22 0 0 0 33 20c0-1.56-1.17-2.41-2.79-2.41h-2.39v7.94h.82v-7.2h1.5c1.22 0 2 .57 2 1.67s-.79 1.67-2 1.67H30l1.14 1.82zm11.76-7.94H44l-3.49 7.94h.87l.8-1.86H46l.8 1.86h.88zm1.5 5.34h-3.18l1.59-3.66 1.22 2.81zm-.37-.85l.37.85zm-1.22-2.81l-1.59 3.66zm12.16-1.68h-.82v6l-5-6h-.16v7.94h.81v-6l5 6h.16zM12.9 24a3.1 3.1 0 0 1-2.2.91h-.23a3 3 0 0 1-2.2-1.14 3.56 3.56 0 0 1-.7-2.19 3.52 3.52 0 0 1 .7-2.19 3 3 0 0 1 2.2-1.13h.23a3.08 3.08 0 0 1 2.2.9l.11.12.52-.61a.23.23 0 0 0-.07-.07 3.72 3.72 0 0 0-2.76-1.11h-.23a3.81 3.81 0 0 0-2.77 1.28 4.25 4.25 0 0 0-1 2.76 4.23 4.23 0 0 0 1 2.76 3.79 3.79 0 0 0 2.77 1.34h.23a3.76 3.76 0 0 0 2.76-1.12l-.46-.59m45.26-5.57c.2 0 .33.09.33.27s-.13.26-.33.26H58v-.53zm-.47-.2v1.47H58v-.54h.27l.34.54h.26l-.36-.62a.44.44 0 0 0 .3-.43.47.47 0 0 0-.53-.46zm.49-.37a1.11 1.11 0 1 1-1.05 1.11 1.05 1.05 0 0 1 1.05-1.11m0-.21a1.32 1.32 0 1 0 1.27 1.32 1.26 1.26 0 0 0-1.27-1.32" transform="translate(-6.75 -5.67)"/></g></g></g></svg>