<svg id="logo" xmlns="http://www.w3.org/2000/svg" viewBox="0 0 189.7 96.9"><title>TECE</title><path d="M34.5.5H.9a.9.9,0,0,0-.9,1V8a.9.9,0,0,0,.9.9H12.2V50.6a.9.9,0,0,0,.9.9h9.4a.9.9,0,0,0,.9-.9V8.8H34.7a.9.9,0,0,0,.9-.9V1.5A1.1,1.1,0,0,0,34.5.5Z" style="fill:#002554;fill-rule:evenodd"/><path d="M75.7.5H42.1a.9.9,0,0,0-.9,1v49a.9.9,0,0,0,.9.9H75.7a.9.9,0,0,0,1-.9V44.1a.9.9,0,0,0-1-1H52.5V29.6H70.2a.9.9,0,0,0,1-1V22.1a.9.9,0,0,0-1-.9H52.5V8.8H75.7a.9.9,0,0,0,1-.9V1.5C76.8.9,76.3.5,75.7.5Z" style="fill:#002554;fill-rule:evenodd"/><path d="M156,.5H122.4a.9.9,0,0,0-.9,1v49a.9.9,0,0,0,.9.9H156a1,1,0,0,0,1-.9V44.1a1,1,0,0,0-1-1H132.7V29.6h17.8a.9.9,0,0,0,1-1V22.1a.9.9,0,0,0-1-.9H132.7V8.8H156a1,1,0,0,0,1-.9V1.5C157.1.9,156.5.5,156,.5Z" style="fill:#002554;fill-rule:evenodd"/><path d="M188.7,28.8H167.8a.9.9,0,0,0-.9.9V50.5a.9.9,0,0,0,.9.9h20.9a.9.9,0,0,0,.9-.9V29.8A1,1,0,0,0,188.7,28.8Z" style="fill:#002554;fill-rule:evenodd"/><path d="M187.2,20.8H169.3V2.9h17.9ZM188.7.5H167.8a.9.9,0,0,0-.9,1V22.2a.9.9,0,0,0,.9,1h20.9a.9.9,0,0,0,.9-1V1.5A.9.9,0,0,0,188.7.5Z" style="fill:#002554;fill-rule:evenodd"/><path d="M95.3,10a13.1,13.1,0,0,1,6.5-1.7,38.3,38.3,0,0,1,11.7,2,1.1,1.1,0,0,0,1.2-.7l1-5.6a1.3,1.3,0,0,0-.9-1.7,45.5,45.5,0,0,0-13-2.3,32.6,32.6,0,0,0-8.7.9C86.7,2.5,82.7,7.3,81.2,14.8A65.6,65.6,0,0,0,80.3,26a66.2,66.2,0,0,0,.9,11.1c1.5,7.5,5.5,12.3,11.9,13.9a32.6,32.6,0,0,0,8.7.9,46,46,0,0,0,13-2.2,1.4,1.4,0,0,0,.9-1.8l-1.2-5.4c-.1-.6-.6-.8-1.2-.7a38.7,38.7,0,0,1-11.6,2,12.5,12.5,0,0,1-6.6-1.7c-2.4-1.5-3.4-3.9-4.1-7.1a56.8,56.8,0,0,1-.7-8.9,54.5,54.5,0,0,1,.6-8.5C91.5,14.2,92.9,11.6,95.3,10Z" style="fill:#002554;fill-rule:evenodd"/><g id="claim"><path d="M11.6,72c-3.6,0-6,.9-6,5.1v5c0,4.3,2.4,5.1,6,5.1a40.2,40.2,0,0,0,5.7-.5v2.2a34.2,34.2,0,0,1-5.9.5c-6.9,0-8.3-3.1-8.3-7.3V77.6c0-4.5,1-7.7,8.7-7.7,2,0,4.1.4,5.5.5v2.3A21,21,0,0,0,11.6,72Z" style="fill:#002554;fill-rule:evenodd"/><rect x="22.1" y="62.7" width="2.5" height="26.22" style="fill:#002554"/><path d="M37.7,72c-4,0-6,1.2-6,5.2v4.7c0,4.2,2.4,5.2,6,5.2s6.1-1.2,6.1-5.2V77.2C43.8,73.1,41.6,72,37.7,72Zm0,17.3c-6.7,0-8.7-3.2-8.7-7.4V77.2c0-4.1,1.6-7.5,8.7-7.5s8.7,3.4,8.7,7.5v4.7C46.4,86.1,44.6,89.3,37.7,89.3Z" style="fill:#002554;fill-rule:evenodd"/><path d="M49.8,86.1a17.9,17.9,0,0,0,5.6,1c3.1,0,5.2-.4,5.2-2.8s-1.2-2.3-2.7-3.1l-3.8-1.9c-2.7-1.2-3.8-2.4-3.8-5s2.3-4.6,7.6-4.6a24.2,24.2,0,0,1,4.5.6v2.2a18.4,18.4,0,0,0-4.5-.5c-3.4,0-4.9.8-4.9,2.5s.8,2,2.1,2.7l4.2,2c2.5,1.2,4,2.7,4,5.2s-2.8,5-7.8,5a16.7,16.7,0,0,1-5.6-.9V86.1Z" style="fill:#002554;fill-rule:evenodd"/><path d="M80.3,78.1V76.9c0-3.7-1.9-4.9-5.1-4.9s-5.6,1.3-5.9,6.1ZM69.3,80c0,5.5,1.6,7.1,6.8,7.1a35.2,35.2,0,0,0,5.1-.4v2.1a33.8,33.8,0,0,1-5.1.5c-7.6,0-9.3-3-9.3-9.7,0-8.3,3.2-9.9,8.5-9.9s7.5,1.6,7.5,7.5c0,.8,0,1.7-.1,2.8Z" style="fill:#002554;fill-rule:evenodd"/><path d="M103.2,89.2h-2.4c-6.3,0-6.1-4.9-6.1-6.1V72.1h-3V70h3l.6-5.4h2V70H103v2.1H97.3V83.7c0,1.6.4,3.4,3.9,3.4a7.1,7.1,0,0,0,2-.2Z" style="fill:#002554;fill-rule:evenodd"/><path d="M114.7,72c-4,0-6.1,1.2-6.1,5.2v4.7c0,4.2,2.5,5.2,6.1,5.2s6-1.2,6-5.2V77.2C120.7,73.1,118.5,72,114.7,72Zm0,17.3c-6.7,0-8.7-3.2-8.7-7.4V77.2c0-4.1,1.6-7.5,8.7-7.5s8.7,3.4,8.7,7.5v4.7C123.2,86.1,121.4,89.3,114.7,89.3Z" style="fill:#002554;fill-rule:evenodd"/><path d="M132.7,94.5c4.8-.3,6.7-1.3,8.1-4.8L133,70.1h2.9l6.2,16.6,6.2-16.6h2.9l-7.1,18.3c-2,5.6-2.9,8-11.2,8.5V94.5Z" style="fill:#002554;fill-rule:evenodd"/><path d="M161.1,72c-4,0-6,1.2-6,5.2v4.7c0,4.2,2.4,5.2,6,5.2s6-1.2,6-5.2V77.2C167.1,73.1,165,72,161.1,72Zm0,17.3c-6.7,0-8.7-3.2-8.7-7.4V77.2c0-4.1,1.6-7.5,8.7-7.5s8.7,3.4,8.7,7.5v4.7C169.7,86.1,167.9,89.3,161.1,89.3Z" style="fill:#002554;fill-rule:evenodd"/><path d="M176.5,70.1V81.9c0,3.8.8,5.2,5.3,5.2a22.7,22.7,0,0,0,5.4-.8V70.1h2.5V89h-1.8l-.3-.7a19.5,19.5,0,0,1-5.8,1.1c-5.8,0-7.7-1.5-7.7-7.3v-12Z" style="fill:#002554;fill-rule:evenodd"/></g></svg>